<?xml version="1.0" standalone="no"?>
<!DOCTYPE svg PUBLIC "-//W3C//DTD SVG 20010904//EN"
 "http://www.w3.org/TR/2001/REC-SVG-20010904/DTD/svg10.dtd">
<svg version="1.0" xmlns="http://www.w3.org/2000/svg"
 width="48.000000pt" height="48.000000pt" viewBox="0 0 48.000000 48.000000"
 preserveAspectRatio="xMidYMid meet">

<g transform="translate(0.000000,48.000000) scale(0.100000,-0.100000)"
fill="#000000" stroke="none">
<path d="M130 411 c-19 -38 -22 -40 -72 -43 l-53 -3 0 -165 0 -165 235 0 235
0 0 165 0 165 -53 3 c-50 3 -53 5 -72 43 l-20 39 -90 0 -90 0 -20 -39z m200
-41 c19 -38 23 -40 65 -40 l45 0 0 -130 0 -130 -200 0 -200 0 0 130 0 130 45
0 c42 0 46 2 65 40 l20 40 70 0 70 0 20 -40z"/>
<path d="M188 314 c-30 -16 -58 -61 -58 -94 0 -53 57 -110 110 -110 34 0 78
28 95 60 19 37 19 63 0 100 -28 54 -94 74 -147 44z m99 -46 c29 -27 29 -65 1
-95 -27 -29 -65 -29 -95 -1 -29 27 -29 65 -1 95 27 29 65 29 95 1z"/>
</g>
</svg>
