<?xml version="1.0" standalone="no"?>
<!DOCTYPE svg PUBLIC "-//W3C//DTD SVG 20010904//EN"
 "http://www.w3.org/TR/2001/REC-SVG-20010904/DTD/svg10.dtd">
<svg version="1.0" xmlns="http://www.w3.org/2000/svg"
 width="48.000000pt" height="48.000000pt" viewBox="0 0 48.000000 48.000000"
 preserveAspectRatio="xMidYMid meet">

<g transform="translate(0.000000,48.000000) scale(0.100000,-0.100000)"
fill="#000000" stroke="none">
<path d="M16 464 c-23 -22 -23 -186 0 -208 8 -9 22 -16 30 -16 10 0 14 -13 14
-45 0 -30 4 -45 13 -45 16 0 77 62 77 78 0 17 -20 15 -42 -5 -17 -15 -18 -14
-18 15 0 29 -3 32 -30 32 l-30 0 0 90 0 90 120 0 120 0 0 -45 c0 -33 4 -45 15
-45 21 0 21 83 -1 104 -23 23 -245 23 -268 0z"/>
<path d="M196 314 c-12 -12 -16 -37 -16 -104 0 -106 9 -120 79 -120 42 0 51
-4 91 -45 57 -58 70 -58 70 0 0 32 4 45 14 45 35 0 46 29 46 120 0 120 0 120
-150 120 -94 0 -122 -3 -134 -16z m254 -104 l0 -90 -30 0 c-27 0 -30 -3 -30
-32 l0 -32 -33 32 c-29 28 -39 32 -90 32 l-57 0 0 90 0 90 120 0 120 0 0 -90z"/>
</g>
</svg>
