<?xml version="1.0" standalone="no"?>
<!DOCTYPE svg PUBLIC "-//W3C//DTD SVG 20010904//EN"
 "http://www.w3.org/TR/2001/REC-SVG-20010904/DTD/svg10.dtd">
<svg version="1.0" xmlns="http://www.w3.org/2000/svg"
 width="48.000000pt" height="48.000000pt" viewBox="0 0 48.000000 48.000000"
 preserveAspectRatio="xMidYMid meet">

<g transform="translate(0.000000,48.000000) scale(0.100000,-0.100000)"
fill="#000000" stroke="none">
<path d="M180 381 c-81 -26 -180 -104 -180 -141 0 -26 64 -86 125 -118 70 -37
160 -37 230 0 61 32 125 92 125 118 0 26 -64 87 -124 117 -52 26 -135 38 -176
24z m133 -37 c26 -9 69 -36 95 -60 l47 -44 -47 -44 c-48 -44 -118 -76 -168
-76 -50 0 -120 32 -168 76 l-47 44 48 44 c76 71 152 90 240 60z"/>
<path d="M179 301 c-20 -20 -29 -39 -29 -61 0 -43 47 -90 90 -90 43 0 90 47
90 90 0 43 -47 90 -90 90 -22 0 -41 -9 -61 -29z m101 -21 c11 -11 20 -29 20
-40 0 -26 -34 -60 -60 -60 -26 0 -60 34 -60 60 0 11 9 29 20 40 11 11 29 20
40 20 11 0 29 -9 40 -20z"/>
</g>
</svg>
