<?xml version="1.0" standalone="no"?>
<!DOCTYPE svg PUBLIC "-//W3C//DTD SVG 20010904//EN"
 "http://www.w3.org/TR/2001/REC-SVG-20010904/DTD/svg10.dtd">
<svg version="1.0" xmlns="http://www.w3.org/2000/svg"
 width="600.000000pt" height="600.000000pt" viewBox="0 0 600.000000 600.000000"
 preserveAspectRatio="xMidYMid meet">

<g transform="translate(0.000000,600.000000) scale(0.100000,-0.100000)"
fill="#000000" stroke="none">
<path d="M2780 5989 c-313 -34 -639 -146 -905 -309 -205 -126 -448 -348 -593
-544 -201 -272 -334 -581 -395 -921 -32 -178 -31 -497 1 -645 131 -599 543
-1418 1270 -2520 259 -394 619 -906 686 -979 86 -93 226 -93 312 0 36 40 188
250 365 504 794 1140 1356 2158 1538 2786 66 229 76 295 75 524 0 170 -4 233
-21 330 -81 451 -282 836 -602 1156 -330 330 -730 533 -1189 605 -119 18 -427
26 -542 13z m544 -449 c708 -140 1245 -693 1367 -1407 31 -186 24 -400 -19
-563 -121 -456 -438 -1099 -930 -1885 -238 -379 -723 -1095 -742 -1095 -19 0
-483 683 -717 1055 -262 416 -456 758 -627 1105 -137 276 -201 427 -271 635
-83 247 -98 335 -92 540 5 186 22 287 77 460 89 279 271 557 492 753 258 228
590 379 932 422 121 15 407 5 530 -20z"/>
<path d="M2797 4689 c-249 -61 -460 -235 -572 -472 -58 -122 -78 -213 -77
-362 0 -145 17 -231 70 -348 171 -377 584 -579 987 -482 94 23 256 103 332
165 137 110 249 285 294 460 31 116 31 300 0 415 -67 253 -242 463 -476 571
-161 74 -385 96 -558 53z m349 -431 c148 -54 248 -176 276 -336 31 -184 -70
-370 -249 -455 -63 -30 -76 -32 -173 -32 -97 0 -110 2 -173 32 -178 85 -280
271 -249 455 46 269 317 429 568 336z"/>
</g>
</svg>
