<?xml version="1.0" standalone="no"?>
<!DOCTYPE svg PUBLIC "-//W3C//DTD SVG 20010904//EN"
 "http://www.w3.org/TR/2001/REC-SVG-20010904/DTD/svg10.dtd">
<svg version="1.0" xmlns="http://www.w3.org/2000/svg"
 width="48.000000pt" height="48.000000pt" viewBox="0 0 48.000000 48.000000"
 preserveAspectRatio="xMidYMid meet">

<g transform="translate(0.000000,48.000000) scale(0.100000,-0.100000)"
fill="#000000" stroke="none">
<path d="M12 438 c-17 -17 -17 -379 0 -396 17 -17 439 -17 456 0 17 17 17 319
0 336 -8 8 -49 12 -119 12 l-108 0 -21 30 c-21 29 -23 30 -109 30 -54 0 -91
-4 -99 -12z m186 -58 l23 -30 109 0 110 0 0 -140 0 -140 -200 0 -200 0 0 170
0 170 68 0 c64 0 70 -2 90 -30z"/>
<path d="M152 328 c-23 -23 -7 -68 24 -68 14 0 44 27 44 40 0 13 -30 40 -44
40 -6 0 -17 -5 -24 -12z"/>
<path d="M244 204 l-27 -46 -17 22 -17 23 -32 -46 c-17 -25 -31 -48 -31 -51 0
-3 57 -6 126 -6 69 0 124 4 122 8 -10 25 -84 142 -90 142 -4 0 -19 -21 -34
-46z"/>
</g>
</svg>
