<?xml version="1.0" standalone="no"?>
<!DOCTYPE svg PUBLIC "-//W3C//DTD SVG 20010904//EN"
 "http://www.w3.org/TR/2001/REC-SVG-20010904/DTD/svg10.dtd">
<svg version="1.0" xmlns="http://www.w3.org/2000/svg"
 width="48.000000pt" height="48.000000pt" viewBox="0 0 48.000000 48.000000"
 preserveAspectRatio="xMidYMid meet">

<g transform="translate(0.000000,48.000000) scale(0.100000,-0.100000)"
fill="#000000" stroke="none">
<path d="M105 439 c-83 -25 -129 -124 -90 -198 23 -46 199 -201 226 -201 28 0
201 155 224 201 45 86 -24 199 -121 199 -25 0 -58 -7 -73 -15 -25 -12 -33 -12
-57 -1 -43 20 -76 25 -109 15z m98 -69 c14 -11 30 -20 37 -20 7 0 23 9 37 20
59 47 137 13 150 -65 6 -36 4 -39 -88 -126 -52 -49 -96 -89 -99 -89 -3 0 -47
40 -97 88 -105 99 -115 125 -67 181 32 38 87 43 127 11z"/>
</g>
</svg>
