<?xml version="1.0" standalone="no"?>
<!DOCTYPE svg PUBLIC "-//W3C//DTD SVG 20010904//EN"
 "http://www.w3.org/TR/2001/REC-SVG-20010904/DTD/svg10.dtd">
<svg version="1.0" xmlns="http://www.w3.org/2000/svg"
 width="48.000000pt" height="48.000000pt" viewBox="0 0 48.000000 48.000000"
 preserveAspectRatio="xMidYMid meet">

<g transform="translate(0.000000,48.000000) scale(0.100000,-0.100000)"
fill="#000000" stroke="none">
<path d="M182 427 c-110 -40 -168 -156 -127 -254 15 -37 15 -37 -21 -74 -20
-20 -33 -42 -30 -48 10 -15 277 -14 327 0 81 25 149 110 149 189 0 135 -161
236 -298 187z m183 -59 c42 -28 75 -85 75 -128 0 -44 -33 -100 -77 -130 -33
-23 -47 -25 -167 -28 l-131 -4 27 29 26 28 -18 35 c-35 64 -18 140 43 191 53
45 163 48 222 7z"/>
</g>
</svg>
