<?xml version="1.0" standalone="no"?>
<!DOCTYPE svg PUBLIC "-//W3C//DTD SVG 20010904//EN"
 "http://www.w3.org/TR/2001/REC-SVG-20010904/DTD/svg10.dtd">
<svg version="1.0" xmlns="http://www.w3.org/2000/svg"
 width="48.000000pt" height="48.000000pt" viewBox="0 0 48.000000 48.000000"
 preserveAspectRatio="xMidYMid meet">

<g transform="translate(0.000000,48.000000) scale(0.100000,-0.100000)"
fill="#000000" stroke="none">
<path d="M160 467 c-49 -16 -133 -102 -148 -153 -28 -94 -8 -169 63 -239 101
-102 229 -102 330 0 102 101 102 229 0 330 -70 71 -152 91 -245 62z m170 -42
c68 -35 111 -104 112 -179 1 -123 -85 -209 -208 -208 -58 0 -96 17 -138 58
-42 43 -58 81 -59 144 -1 151 160 252 293 185z"/>
<path d="M227 354 c-4 -4 -7 -27 -7 -50 l0 -43 -47 -3 c-35 -2 -48 -7 -48 -18
0 -11 13 -16 47 -18 l47 -3 3 -47 c2 -34 7 -47 18 -47 11 0 16 13 18 47 l3 47
47 3 c34 2 47 7 47 18 0 11 -13 16 -47 18 l-47 3 -3 46 c-3 44 -15 62 -31 47z"/>
</g>
</svg>
