<?xml version="1.0" standalone="no"?>
<!DOCTYPE svg PUBLIC "-//W3C//DTD SVG 20010904//EN"
 "http://www.w3.org/TR/2001/REC-SVG-20010904/DTD/svg10.dtd">
<svg version="1.0" xmlns="http://www.w3.org/2000/svg"
 width="900.000000pt" height="900.000000pt" viewBox="0 0 900.000000 900.000000"
 preserveAspectRatio="xMidYMid meet">

<g transform="translate(0.000000,900.000000) scale(0.100000,-0.100000)"
fill="#000000" stroke="none">
<path d="M4295 8529 c-123 -9 -289 -40 -380 -69 -33 -11 -68 -20 -78 -20 -10
0 -42 -9 -70 -21 -142 -58 -174 -71 -199 -85 -14 -8 -33 -14 -41 -14 -8 0 -26
-9 -40 -20 -14 -11 -30 -20 -35 -20 -6 0 -48 -23 -94 -52 -46 -28 -92 -56
-103 -62 -70 -38 -240 -179 -356 -295 -157 -158 -258 -287 -366 -469 -34 -57
-117 -230 -143 -297 -12 -33 -31 -78 -41 -101 -11 -23 -19 -50 -19 -60 0 -10
-9 -46 -20 -79 -105 -323 -105 -870 0 -1202 11 -34 20 -71 20 -82 0 -12 9 -38
20 -58 11 -21 20 -43 20 -50 0 -28 121 -277 188 -388 146 -242 384 -505 591
-653 150 -107 204 -140 361 -217 153 -76 183 -88 305 -125 33 -10 74 -23 90
-28 17 -6 73 -20 125 -31 238 -51 519 -65 745 -36 189 24 278 44 450 101 186
61 240 85 405 178 141 79 206 123 329 225 260 212 489 505 618 791 12 25 30
66 42 91 12 25 21 52 21 58 0 6 9 29 20 51 11 22 20 47 20 57 1 10 9 36 20 58
11 22 19 51 20 64 0 13 9 58 19 100 73 285 73 736 0 993 -10 36 -19 78 -19 92
0 15 -9 44 -20 66 -11 22 -20 46 -20 55 0 9 -9 40 -21 68 -11 29 -30 75 -41
102 -71 175 -197 386 -332 555 -127 158 -371 377 -528 473 -124 76 -142 86
-233 130 -156 76 -203 97 -219 97 -9 0 -35 9 -58 19 -39 17 -67 26 -168 51
-247 61 -500 80 -785 59z m484 -600 c373 -68 680 -228 933 -486 79 -80 238
-287 238 -308 0 -7 6 -18 14 -24 43 -36 163 -337 193 -486 8 -38 19 -88 24
-110 12 -55 11 -449 -2 -505 -5 -25 -16 -76 -23 -115 -8 -38 -21 -87 -30 -107
-9 -21 -16 -45 -16 -55 -1 -10 -9 -36 -20 -58 -11 -22 -19 -44 -20 -50 0 -15
-87 -183 -131 -254 -140 -225 -392 -466 -604 -576 -38 -20 -77 -40 -85 -45
-16 -9 -69 -33 -155 -68 -27 -12 -66 -24 -85 -28 -19 -4 -48 -12 -65 -19 -16
-7 -61 -18 -100 -25 -38 -6 -90 -15 -115 -20 -59 -11 -371 -11 -435 0 -168 30
-214 40 -247 54 -21 9 -45 16 -55 16 -10 1 -36 9 -58 20 -22 11 -45 19 -51 20
-35 1 -353 183 -384 220 -3 3 -18 14 -34 24 -55 35 -197 180 -280 285 -77 98
-206 306 -206 331 0 6 -9 28 -19 48 -17 34 -27 58 -51 132 -62 187 -96 408
-87 575 7 127 41 337 62 389 8 19 15 45 15 56 0 11 9 37 20 57 11 21 20 43 20
50 0 20 85 195 130 268 69 111 203 276 282 349 66 62 221 186 232 186 3 0 31
17 63 38 62 41 225 122 244 122 7 0 30 9 53 19 53 25 166 55 291 79 146 29
390 29 544 1z"/>
<path d="M2740 3548 c-193 -30 -361 -68 -485 -110 -16 -6 -50 -16 -75 -23 -25
-7 -58 -20 -75 -29 -16 -9 -34 -16 -39 -16 -5 0 -30 -9 -55 -21 -25 -11 -64
-29 -86 -39 -75 -32 -90 -40 -105 -50 -8 -5 -62 -36 -120 -68 -230 -130 -400
-260 -601 -461 -213 -215 -368 -419 -489 -646 -71 -134 -78 -147 -111 -225
-17 -41 -38 -84 -45 -95 -8 -11 -14 -28 -14 -38 0 -11 -7 -33 -15 -50 -8 -18
-22 -57 -31 -87 -8 -30 -26 -93 -40 -140 -13 -47 -28 -112 -34 -145 -5 -33
-16 -85 -24 -115 -8 -30 -22 -154 -31 -276 -17 -219 -17 -221 4 -290 24 -83
84 -153 159 -187 l47 -22 4045 0 c3240 0 4053 3 4087 13 28 8 61 32 100 71 51
52 60 67 77 131 17 69 17 80 1 288 -9 120 -22 242 -30 272 -8 30 -19 82 -25
115 -19 111 -99 378 -143 475 -11 25 -28 63 -37 85 -73 168 -196 380 -304 525
-39 52 -79 108 -89 123 -9 15 -97 108 -195 206 -244 245 -464 407 -737 544
-33 16 -67 34 -75 38 -19 11 -51 26 -115 51 -27 11 -66 27 -85 35 -19 9 -55
21 -80 28 -25 7 -58 18 -75 23 -108 39 -300 82 -500 111 -137 21 -170 21
-1785 20 -1570 -2 -1651 -2 -1770 -21z m3595 -606 c61 -12 139 -32 175 -42 36
-11 69 -20 75 -20 5 0 33 -9 62 -20 29 -12 79 -30 110 -42 320 -118 663 -364
896 -641 137 -163 245 -330 318 -487 14 -30 34 -73 44 -95 86 -186 175 -544
145 -580 -11 -13 -471 -15 -3636 -15 -3479 0 -3624 1 -3633 18 -21 40 44 339
100 458 10 23 19 46 19 51 0 11 80 190 95 213 6 8 22 38 36 67 101 196 338
479 555 661 59 49 193 144 244 173 19 11 53 30 75 43 68 40 197 102 270 130
39 15 93 36 120 46 28 11 58 20 68 20 9 0 43 9 74 19 73 25 260 60 338 64 33
2 798 3 1700 3 l1640 -1 110 -23z"/>
</g>
</svg>
